<?xml version="1.0" standalone="no"?><!DOCTYPE svg PUBLIC "-//W3C//DTD SVG 1.1//EN" "http://www.w3.org/Graphics/SVG/1.1/DTD/svg11.dtd"><svg t="1639644096756" class="icon" viewBox="0 0 1024 1024" version="1.1" xmlns="http://www.w3.org/2000/svg" p-id="1205" xmlns:xlink="http://www.w3.org/1999/xlink" width="24" height="24"><defs><style type="text/css"></style></defs><path d="M670.72 1024H149.845333A121.856 121.856 0 0 1 28.330667 902.485333V324.949333A121.856 121.856 0 0 1 149.845333 204.8h520.874667a121.856 121.856 0 0 1 121.514667 121.514667v576.170666A121.856 121.856 0 0 1 670.72 1024zM149.845333 288.768A36.181333 36.181333 0 0 0 113.664 324.949333v577.536a35.84 35.84 0 0 0 36.181333 36.181334h520.874667a35.84 35.84 0 0 0 36.181333-36.181334V324.949333a36.181333 36.181333 0 0 0-36.181333-36.181333z" fill="#3A3C43" p-id="1206"></path><path d="M872.789333 819.2a42.666667 42.666667 0 0 1 0-85.333333 37.888 37.888 0 0 0 37.546667-37.888V121.514667a35.84 35.84 0 0 0-35.84-36.181334H354.986667a37.888 37.888 0 0 0-37.888 37.546667A42.666667 42.666667 0 0 1 233.130667 122.88 123.221333 123.221333 0 0 1 354.986667 0h519.509333a121.514667 121.514667 0 0 1 121.173333 121.514667v575.829333a123.221333 123.221333 0 0 1-122.88 121.856zM551.594667 766.634667H268.970667a42.666667 42.666667 0 0 1 0-85.333334h282.624a42.666667 42.666667 0 0 1 0 85.333334z" fill="#3A3C43" p-id="1207"></path><path d="M551.594667 546.133333H268.970667a42.666667 42.666667 0 0 1 0-85.333333h282.624a42.666667 42.666667 0 0 1 0 85.333333z" fill="#3A3C43" p-id="1208"></path></svg>