<?xml version="1.0" standalone="no"?><!DOCTYPE svg PUBLIC "-//W3C//DTD SVG 1.1//EN" "http://www.w3.org/Graphics/SVG/1.1/DTD/svg11.dtd"><svg t="1639972538932" class="icon" viewBox="0 0 1024 1024" version="1.1" xmlns="http://www.w3.org/2000/svg" p-id="1062" xmlns:xlink="http://www.w3.org/1999/xlink" width="24" height="24"><defs><style type="text/css"></style></defs><path d="M900.413793 1024h-776.827586A123.586207 123.586207 0 0 1 0 900.413793v-776.827586A123.586207 123.586207 0 0 1 123.586207 0h306.14069a52.965517 52.965517 0 0 1 0 105.931034H123.586207a17.655172 17.655172 0 0 0-17.655173 17.655173v776.827586a17.655172 17.655172 0 0 0 17.655173 17.655173h776.827586a17.655172 17.655172 0 0 0 17.655173-17.655173v-306.14069a52.965517 52.965517 0 0 1 105.931034 0v306.14069a123.586207 123.586207 0 0 1-123.586207 123.586207zM971.034483 392.651034a52.965517 52.965517 0 0 1-52.965517-52.965517V105.931034h-233.754483a52.965517 52.965517 0 0 1 0-105.931034h286.72A52.965517 52.965517 0 0 1 1024 52.965517v286.72a52.965517 52.965517 0 0 1-52.965517 52.965517z" fill="#3A3C43" p-id="1063"></path><path d="M499.641379 577.324138a51.2 51.2 0 0 1-37.428965-15.536552 52.612414 52.612414 0 0 1 0-74.857931L933.605517 15.536552a52.965517 52.965517 0 0 1 74.857931 74.857931L537.070345 561.787586a51.906207 51.906207 0 0 1-37.428966 15.536552z" fill="#3A3C43" p-id="1064"></path></svg>